<?xml version="1.0" encoding="utf-8"?>
<!-- Generator: Adobe Illustrator 16.0.0, SVG Export Plug-In . SVG Version: 6.00 Build 0)  -->
<!DOCTYPE svg PUBLIC "-//W3C//DTD SVG 1.1//EN" "http://www.w3.org/Graphics/SVG/1.1/DTD/svg11.dtd">
<svg version="1.1" id="Capa_1" xmlns="http://www.w3.org/2000/svg" xmlns:xlink="http://www.w3.org/1999/xlink" x="0px" y="0px"
	 width="91.797px" height="103.02px" viewBox="0 0 91.797 103.02" enable-background="new 0 0 91.797 103.02" xml:space="preserve">
<g>
	<g>
		<g>
			<path d="M16.71,78.314l-0.149-29.63l0.149-29.635L45.695,33.75L74.54,48.682l-28.838,14.93L16.71,78.314z M18.061,21.126
				l-0.139,27.559l0.139,27.553L45.02,62.565l26.816-13.883L45.014,34.796L18.061,21.126z"/>
		</g>
		<g>
			<path d="M46.43,63.611l-28.508-14.93L46.435,33.75L75.09,19.049l0.146,29.635l-0.146,29.63L46.43,63.611z M47.108,34.796
				L20.592,48.682l26.511,13.883l26.651,13.673l0.138-27.553l-0.138-27.559L47.108,34.796z"/>
		</g>
	</g>
	<polygon fill="#FF5773" points="45.899,28.02 89.2,28.02 67.549,65.52 45.899,103.02 24.249,65.52 2.598,28.02 	"/>
	<polygon fill="none" stroke="#000000" stroke-width="3" stroke-miterlimit="10" points="45.899,78 2.598,78 24.249,40.5 45.899,3 
		67.549,40.5 89.2,78 	"/>
</g>
</svg>
